<mxfile host="app.diagrams.net" modified="2024-08-08T05:25:39.741Z" agent="Mozilla/5.0 (Windows NT 10.0; Win64; x64) AppleWebKit/537.36 (KHTML, like Gecko) Chrome/127.0.0.0 Safari/537.36" version="24.6.3" etag="qB-H6R7JuKfVeibrVPJ2" type="github">
  <diagram name="Page-1" id="R1vJABNInEpRGWBuLXh9">
    <mxGraphModel>
      <root>
        <mxCell id="0" />
        <mxCell id="1" parent="0" />
      </root>
    </mxGraphModel>
  </diagram>
</mxfile>
